<svg xmlns="http://www.w3.org/2000/svg" viewBox="0 0 800 500">
  <defs>
    <linearGradient id="bg" x1="0" y1="0" x2="1" y2="1">
      <stop offset="0" stop-color="#1E1B4B"/>
      <stop offset="1" stop-color="#6D28D9"/>
    </linearGradient>
    <linearGradient id="bar" x1="0" y1="0" x2="1" y2="0">
      <stop offset="0" stop-color="#C4B5FD"/>
      <stop offset="1" stop-color="#C4B5FD" stop-opacity="0.2"/>
    </linearGradient>
  </defs>
  <rect width="800" height="500" fill="url(#bg)"/>
  <circle cx="40" cy="40" r="1.6" fill="#FFFFFF" opacity="0.05"/><circle cx="40" cy="88" r="1.6" fill="#FFFFFF" opacity="0.05"/><circle cx="40" cy="136" r="1.6" fill="#FFFFFF" opacity="0.05"/><circle cx="40" cy="184" r="1.6" fill="#FFFFFF" opacity="0.05"/><circle cx="40" cy="232" r="1.6" fill="#FFFFFF" opacity="0.05"/><circle cx="40" cy="280" r="1.6" fill="#FFFFFF" opacity="0.05"/><circle cx="40" cy="328" r="1.6" fill="#FFFFFF" opacity="0.05"/><circle cx="40" cy="376" r="1.6" fill="#FFFFFF" opacity="0.05"/><circle cx="40" cy="424" r="1.6" fill="#FFFFFF" opacity="0.05"/><circle cx="40" cy="472" r="1.6" fill="#FFFFFF" opacity="0.05"/><circle cx="88" cy="40" r="1.6" fill="#FFFFFF" opacity="0.05"/><circle cx="88" cy="88" r="1.6" fill="#FFFFFF" opacity="0.05"/><circle cx="88" cy="136" r="1.6" fill="#FFFFFF" opacity="0.05"/><circle cx="88" cy="184" r="1.6" fill="#FFFFFF" opacity="0.05"/><circle cx="88" cy="232" r="1.6" fill="#FFFFFF" opacity="0.05"/><circle cx="88" cy="280" r="1.6" fill="#FFFFFF" opacity="0.05"/><circle cx="88" cy="328" r="1.6" fill="#FFFFFF" opacity="0.05"/><circle cx="88" cy="376" r="1.6" fill="#FFFFFF" opacity="0.05"/><circle cx="88" cy="424" r="1.6" fill="#FFFFFF" opacity="0.05"/><circle cx="88" cy="472" r="1.6" fill="#FFFFFF" opacity="0.05"/><circle cx="136" cy="40" r="1.6" fill="#FFFFFF" opacity="0.05"/><circle cx="136" cy="88" r="1.6" fill="#FFFFFF" opacity="0.05"/><circle cx="136" cy="136" r="1.6" fill="#FFFFFF" opacity="0.05"/><circle cx="136" cy="184" r="1.6" fill="#FFFFFF" opacity="0.05"/><circle cx="136" cy="232" r="1.6" fill="#FFFFFF" opacity="0.05"/><circle cx="136" cy="280" r="1.6" fill="#FFFFFF" opacity="0.05"/><circle cx="136" cy="328" r="1.6" fill="#FFFFFF" opacity="0.05"/><circle cx="136" cy="376" r="1.6" fill="#FFFFFF" opacity="0.05"/><circle cx="136" cy="424" r="1.6" fill="#FFFFFF" opacity="0.05"/><circle cx="136" cy="472" r="1.6" fill="#FFFFFF" opacity="0.05"/><circle cx="184" cy="40" r="1.6" fill="#FFFFFF" opacity="0.05"/><circle cx="184" cy="88" r="1.6" fill="#FFFFFF" opacity="0.05"/><circle cx="184" cy="136" r="1.6" fill="#FFFFFF" opacity="0.05"/><circle cx="184" cy="184" r="1.6" fill="#FFFFFF" opacity="0.05"/><circle cx="184" cy="232" r="1.6" fill="#FFFFFF" opacity="0.05"/><circle cx="184" cy="280" r="1.6" fill="#FFFFFF" opacity="0.05"/><circle cx="184" cy="328" r="1.6" fill="#FFFFFF" opacity="0.05"/><circle cx="184" cy="376" r="1.6" fill="#FFFFFF" opacity="0.05"/><circle cx="184" cy="424" r="1.6" fill="#FFFFFF" opacity="0.05"/><circle cx="184" cy="472" r="1.6" fill="#FFFFFF" opacity="0.05"/><circle cx="232" cy="40" r="1.6" fill="#FFFFFF" opacity="0.05"/><circle cx="232" cy="88" r="1.6" fill="#FFFFFF" opacity="0.05"/><circle cx="232" cy="136" r="1.6" fill="#FFFFFF" opacity="0.05"/><circle cx="232" cy="184" r="1.6" fill="#FFFFFF" opacity="0.05"/><circle cx="232" cy="232" r="1.6" fill="#FFFFFF" opacity="0.05"/><circle cx="232" cy="280" r="1.6" fill="#FFFFFF" opacity="0.05"/><circle cx="232" cy="328" r="1.6" fill="#FFFFFF" opacity="0.05"/><circle cx="232" cy="376" r="1.6" fill="#FFFFFF" opacity="0.05"/><circle cx="232" cy="424" r="1.6" fill="#FFFFFF" opacity="0.05"/><circle cx="232" cy="472" r="1.6" fill="#FFFFFF" opacity="0.05"/><circle cx="280" cy="40" r="1.6" fill="#FFFFFF" opacity="0.05"/><circle cx="280" cy="88" r="1.6" fill="#FFFFFF" opacity="0.05"/><circle cx="280" cy="136" r="1.6" fill="#FFFFFF" opacity="0.05"/><circle cx="280" cy="184" r="1.6" fill="#FFFFFF" opacity="0.05"/><circle cx="280" cy="232" r="1.6" fill="#FFFFFF" opacity="0.05"/><circle cx="280" cy="280" r="1.6" fill="#FFFFFF" opacity="0.05"/><circle cx="280" cy="328" r="1.6" fill="#FFFFFF" opacity="0.05"/><circle cx="280" cy="376" r="1.6" fill="#FFFFFF" opacity="0.05"/><circle cx="280" cy="424" r="1.6" fill="#FFFFFF" opacity="0.05"/><circle cx="280" cy="472" r="1.6" fill="#FFFFFF" opacity="0.05"/><circle cx="328" cy="40" r="1.6" fill="#FFFFFF" opacity="0.05"/><circle cx="328" cy="88" r="1.6" fill="#FFFFFF" opacity="0.05"/><circle cx="328" cy="136" r="1.6" fill="#FFFFFF" opacity="0.05"/><circle cx="328" cy="184" r="1.6" fill="#FFFFFF" opacity="0.05"/><circle cx="328" cy="232" r="1.6" fill="#FFFFFF" opacity="0.05"/><circle cx="328" cy="280" r="1.6" fill="#FFFFFF" opacity="0.05"/><circle cx="328" cy="328" r="1.6" fill="#FFFFFF" opacity="0.05"/><circle cx="328" cy="376" r="1.6" fill="#FFFFFF" opacity="0.05"/><circle cx="328" cy="424" r="1.6" fill="#FFFFFF" opacity="0.05"/><circle cx="328" cy="472" r="1.6" fill="#FFFFFF" opacity="0.05"/><circle cx="376" cy="40" r="1.6" fill="#FFFFFF" opacity="0.05"/><circle cx="376" cy="88" r="1.6" fill="#FFFFFF" opacity="0.05"/><circle cx="376" cy="136" r="1.6" fill="#FFFFFF" opacity="0.05"/><circle cx="376" cy="184" r="1.6" fill="#FFFFFF" opacity="0.05"/><circle cx="376" cy="232" r="1.6" fill="#FFFFFF" opacity="0.05"/><circle cx="376" cy="280" r="1.6" fill="#FFFFFF" opacity="0.05"/><circle cx="376" cy="328" r="1.6" fill="#FFFFFF" opacity="0.05"/><circle cx="376" cy="376" r="1.6" fill="#FFFFFF" opacity="0.05"/><circle cx="376" cy="424" r="1.6" fill="#FFFFFF" opacity="0.05"/><circle cx="376" cy="472" r="1.6" fill="#FFFFFF" opacity="0.05"/><circle cx="424" cy="40" r="1.6" fill="#FFFFFF" opacity="0.05"/><circle cx="424" cy="88" r="1.6" fill="#FFFFFF" opacity="0.05"/><circle cx="424" cy="136" r="1.6" fill="#FFFFFF" opacity="0.05"/><circle cx="424" cy="184" r="1.6" fill="#FFFFFF" opacity="0.05"/><circle cx="424" cy="232" r="1.6" fill="#FFFFFF" opacity="0.05"/><circle cx="424" cy="280" r="1.6" fill="#FFFFFF" opacity="0.05"/><circle cx="424" cy="328" r="1.6" fill="#FFFFFF" opacity="0.05"/><circle cx="424" cy="376" r="1.6" fill="#FFFFFF" opacity="0.05"/><circle cx="424" cy="424" r="1.6" fill="#FFFFFF" opacity="0.05"/><circle cx="424" cy="472" r="1.6" fill="#FFFFFF" opacity="0.05"/><circle cx="472" cy="40" r="1.6" fill="#FFFFFF" opacity="0.05"/><circle cx="472" cy="88" r="1.6" fill="#FFFFFF" opacity="0.05"/><circle cx="472" cy="136" r="1.6" fill="#FFFFFF" opacity="0.05"/><circle cx="472" cy="184" r="1.6" fill="#FFFFFF" opacity="0.05"/><circle cx="472" cy="232" r="1.6" fill="#FFFFFF" opacity="0.05"/><circle cx="472" cy="280" r="1.6" fill="#FFFFFF" opacity="0.05"/><circle cx="472" cy="328" r="1.6" fill="#FFFFFF" opacity="0.05"/><circle cx="472" cy="376" r="1.6" fill="#FFFFFF" opacity="0.05"/><circle cx="472" cy="424" r="1.6" fill="#FFFFFF" opacity="0.05"/><circle cx="472" cy="472" r="1.6" fill="#FFFFFF" opacity="0.05"/><circle cx="520" cy="40" r="1.6" fill="#FFFFFF" opacity="0.05"/><circle cx="520" cy="88" r="1.6" fill="#FFFFFF" opacity="0.05"/><circle cx="520" cy="136" r="1.6" fill="#FFFFFF" opacity="0.05"/><circle cx="520" cy="184" r="1.6" fill="#FFFFFF" opacity="0.05"/><circle cx="520" cy="232" r="1.6" fill="#FFFFFF" opacity="0.05"/><circle cx="520" cy="280" r="1.6" fill="#FFFFFF" opacity="0.05"/><circle cx="520" cy="328" r="1.6" fill="#FFFFFF" opacity="0.05"/><circle cx="520" cy="376" r="1.6" fill="#FFFFFF" opacity="0.05"/><circle cx="520" cy="424" r="1.6" fill="#FFFFFF" opacity="0.05"/><circle cx="520" cy="472" r="1.6" fill="#FFFFFF" opacity="0.05"/><circle cx="568" cy="40" r="1.6" fill="#FFFFFF" opacity="0.05"/><circle cx="568" cy="88" r="1.6" fill="#FFFFFF" opacity="0.05"/><circle cx="568" cy="136" r="1.6" fill="#FFFFFF" opacity="0.05"/><circle cx="568" cy="184" r="1.6" fill="#FFFFFF" opacity="0.05"/><circle cx="568" cy="232" r="1.6" fill="#FFFFFF" opacity="0.05"/><circle cx="568" cy="280" r="1.6" fill="#FFFFFF" opacity="0.05"/><circle cx="568" cy="328" r="1.6" fill="#FFFFFF" opacity="0.05"/><circle cx="568" cy="376" r="1.6" fill="#FFFFFF" opacity="0.05"/><circle cx="568" cy="424" r="1.6" fill="#FFFFFF" opacity="0.05"/><circle cx="568" cy="472" r="1.6" fill="#FFFFFF" opacity="0.05"/><circle cx="616" cy="40" r="1.6" fill="#FFFFFF" opacity="0.05"/><circle cx="616" cy="88" r="1.6" fill="#FFFFFF" opacity="0.05"/><circle cx="616" cy="136" r="1.6" fill="#FFFFFF" opacity="0.05"/><circle cx="616" cy="184" r="1.6" fill="#FFFFFF" opacity="0.05"/><circle cx="616" cy="232" r="1.6" fill="#FFFFFF" opacity="0.05"/><circle cx="616" cy="280" r="1.6" fill="#FFFFFF" opacity="0.05"/><circle cx="616" cy="328" r="1.6" fill="#FFFFFF" opacity="0.05"/><circle cx="616" cy="376" r="1.6" fill="#FFFFFF" opacity="0.05"/><circle cx="616" cy="424" r="1.6" fill="#FFFFFF" opacity="0.05"/><circle cx="616" cy="472" r="1.6" fill="#FFFFFF" opacity="0.05"/><circle cx="664" cy="40" r="1.6" fill="#FFFFFF" opacity="0.05"/><circle cx="664" cy="88" r="1.6" fill="#FFFFFF" opacity="0.05"/><circle cx="664" cy="136" r="1.6" fill="#FFFFFF" opacity="0.05"/><circle cx="664" cy="184" r="1.6" fill="#FFFFFF" opacity="0.05"/><circle cx="664" cy="232" r="1.6" fill="#FFFFFF" opacity="0.05"/><circle cx="664" cy="280" r="1.6" fill="#FFFFFF" opacity="0.05"/><circle cx="664" cy="328" r="1.6" fill="#FFFFFF" opacity="0.05"/><circle cx="664" cy="376" r="1.6" fill="#FFFFFF" opacity="0.05"/><circle cx="664" cy="424" r="1.6" fill="#FFFFFF" opacity="0.05"/><circle cx="664" cy="472" r="1.6" fill="#FFFFFF" opacity="0.05"/><circle cx="712" cy="40" r="1.6" fill="#FFFFFF" opacity="0.05"/><circle cx="712" cy="88" r="1.6" fill="#FFFFFF" opacity="0.05"/><circle cx="712" cy="136" r="1.6" fill="#FFFFFF" opacity="0.05"/><circle cx="712" cy="184" r="1.6" fill="#FFFFFF" opacity="0.05"/><circle cx="712" cy="232" r="1.6" fill="#FFFFFF" opacity="0.05"/><circle cx="712" cy="280" r="1.6" fill="#FFFFFF" opacity="0.05"/><circle cx="712" cy="328" r="1.6" fill="#FFFFFF" opacity="0.05"/><circle cx="712" cy="376" r="1.6" fill="#FFFFFF" opacity="0.05"/><circle cx="712" cy="424" r="1.6" fill="#FFFFFF" opacity="0.05"/><circle cx="712" cy="472" r="1.6" fill="#FFFFFF" opacity="0.05"/><circle cx="760" cy="40" r="1.6" fill="#FFFFFF" opacity="0.05"/><circle cx="760" cy="88" r="1.6" fill="#FFFFFF" opacity="0.05"/><circle cx="760" cy="136" r="1.6" fill="#FFFFFF" opacity="0.05"/><circle cx="760" cy="184" r="1.6" fill="#FFFFFF" opacity="0.05"/><circle cx="760" cy="232" r="1.6" fill="#FFFFFF" opacity="0.05"/><circle cx="760" cy="280" r="1.6" fill="#FFFFFF" opacity="0.05"/><circle cx="760" cy="328" r="1.6" fill="#FFFFFF" opacity="0.05"/><circle cx="760" cy="376" r="1.6" fill="#FFFFFF" opacity="0.05"/><circle cx="760" cy="424" r="1.6" fill="#FFFFFF" opacity="0.05"/><circle cx="760" cy="472" r="1.6" fill="#FFFFFF" opacity="0.05"/>
  <circle cx="660" cy="110" r="150" fill="#C4B5FD" opacity="0.10"/>
  <circle cx="720" cy="420" r="90" fill="#C4B5FD" opacity="0.08"/>
  <path d="M 500 130 h 200 a 24 24 0 0 1 24 24 v 90 a 24 24 0 0 1 -24 24 h -130 l -46 38 v -38 h -24 a 24 24 0 0 1 -24 -24 v -90 a 24 24 0 0 1 24 -24 Z"
        fill="#0B0F18" stroke="#C4B5FD" stroke-opacity="0.55" stroke-width="2.5"/>
  <text x="530" y="216" font-family="'Segoe UI', system-ui, -apple-system, Arial, sans-serif" font-size="52" font-weight="700" fill="#C4B5FD">「」</text>
  <rect x="530" y="160" width="120" height="9" rx="4.5" fill="#C4B5FD" opacity="0.4"/>
  <rect x="56" y="356" width="120" height="7" rx="3.5" fill="url(#bar)"/>
  <text x="56" y="416" font-family="'Segoe UI', system-ui, -apple-system, Arial, sans-serif" font-size="44" font-weight="700" fill="#F8FAFC">Prompts Chat 中文站</text>
  <text x="56" y="452" font-family="Consolas, 'Courier New', monospace" font-size="19" fill="#C4B5FD">github.com/kael-odin/prompts-chat-zh</text>
</svg>